<svg width="15" height="14" viewBox="0 0 15 14" fill="none" xmlns="http://www.w3.org/2000/svg">
<g clip-path="url(#clip0_2_2953)">
<path d="M0.877444 6.6182H12.8881L8.28902 2.23896C8.0482 2.00963 8.03887 1.62865 8.26825 1.3879C8.49733 1.14745 8.87842 1.13782 9.11954 1.36714L14.3719 6.36872C14.5991 6.59622 14.7247 6.89837 14.7247 7.22007C14.7247 7.54147 14.5991 7.84392 14.3613 8.08135L9.11925 13.0727C9.00275 13.1837 8.85344 13.2388 8.70413 13.2388C8.54519 13.2388 8.38625 13.1762 8.26795 13.052C8.03857 12.8112 8.0479 12.4305 8.28872 12.2012L12.9071 7.82195H0.877444C0.54511 7.82195 0.275391 7.55231 0.275391 7.22007C0.275391 6.88784 0.54511 6.6182 0.877444 6.6182Z" fill="#1A1A1A"/>
</g>
<defs>
<clipPath id="clip0_2_2953">
<rect width="15" height="12.84" fill="white" transform="translate(0 0.799805)"/>
</clipPath>
</defs>
</svg>
