<svg width="13" height="13" viewBox="0 0 13 13" fill="none" xmlns="http://www.w3.org/2000/svg">
<path d="M6.5 0.5C8.0913 0.5 9.61697 1.13259 10.7422 2.25781C11.8674 3.38303 12.5 4.9087 12.5 6.5C12.5 8.0913 11.8674 9.61697 10.7422 10.7422C9.61697 11.8674 8.0913 12.5 6.5 12.5C4.9087 12.5 3.38303 11.8674 2.25781 10.7422C1.13259 9.61697 0.5 8.0913 0.5 6.5C0.5 4.9087 1.13259 3.38303 2.25781 2.25781C3.38303 1.13259 4.9087 0.5 6.5 0.5ZM8.80469 3.75098L5.93262 7.33984L4.06445 5.7832L3.67969 5.46289L3.36035 5.84668L2.80566 6.5127L2.48535 6.89648L2.86914 7.2168L5.80859 9.66602L6.20117 9.99219L6.51953 9.59473L10.2617 4.91602L10.5742 4.52539L10.1836 4.21289L9.50781 3.67285L9.11719 3.36035L8.80469 3.75098Z" fill="black" stroke="black"/>
</svg>
