<svg width="18" height="21" viewBox="0 0 18 21" fill="none" xmlns="http://www.w3.org/2000/svg">
<path d="M8.62708 19.5901C9.04434 19.59 9.40513 19.4718 9.72473 19.2297L9.85852 19.1184L14.4396 14.5364C15.1952 13.7366 15.7815 12.8449 16.2003 11.8606C16.6178 10.8794 16.8263 9.8463 16.8263 8.75708C16.8263 7.66754 16.6174 6.62121 16.1984 5.61548C15.7803 4.61216 15.1975 3.7372 14.4493 2.98657C13.647 2.22646 12.7521 1.63761 11.7638 1.21704C10.7826 0.799536 9.74959 0.590129 8.66028 0.590088C7.57074 0.590088 6.52441 0.798963 5.51868 1.21802C4.51102 1.63789 3.6328 2.22402 2.88 2.97681C2.12721 3.7296 1.54109 4.60783 1.12122 5.61548C0.702161 6.62121 0.493286 7.66754 0.493286 8.75708C0.493328 9.84639 0.702734 10.8794 1.12024 11.8606C1.48827 12.7255 1.98467 13.5192 2.61243 14.2415L2.88977 14.5461L7.48059 19.137C7.78062 19.4368 8.15098 19.5901 8.62708 19.5901ZM8.66028 19.3899C8.27219 19.3899 7.91885 19.2575 7.61438 19.0139L7.5929 18.9963L7.57336 18.9768L2.97278 14.3772C2.21421 13.6186 1.64227 12.7491 1.26086 11.7717C0.882268 10.8015 0.693536 9.78444 0.693481 8.72388C0.693481 7.66313 0.882199 6.6454 1.26086 5.67505C1.64283 4.69627 2.21669 3.83608 2.97864 3.0979C3.73477 2.3654 4.59901 1.79675 5.56848 1.39478C6.54114 0.991489 7.56231 0.790283 8.62708 0.790283C9.69165 0.790341 10.7122 0.991562 11.6847 1.39478C12.6507 1.79532 13.5131 2.35052 14.2687 3.05884L14.2745 3.06372L14.2804 3.06958C15.3187 4.10791 16.0205 5.31976 16.3771 6.69849C16.7316 8.06943 16.7316 9.44473 16.3771 10.8157C16.0209 12.1926 15.3191 13.3822 14.2794 14.3772H14.2804L9.67981 18.9768C9.40223 19.2543 9.05045 19.3898 8.66028 19.3899ZM8.66028 11.3235C9.37125 11.3234 9.96611 11.0762 10.4728 10.5696C10.9794 10.0629 11.2266 9.46805 11.2267 8.75708C11.2267 8.04546 10.9794 7.43505 10.4669 6.90356C9.95873 6.37657 9.36524 6.12337 8.66028 6.12329C7.95453 6.12329 7.34645 6.37755 6.8136 6.9104C6.28075 7.44325 6.02649 8.05134 6.02649 8.75708C6.02657 9.46204 6.27976 10.0555 6.80676 10.5637C7.33824 11.0762 7.94866 11.3235 8.66028 11.3235ZM8.66028 11.1897C7.99408 11.1897 7.41094 10.9482 6.93958 10.4768C6.4684 10.0055 6.22676 9.42307 6.22668 8.75708C6.22668 8.09088 6.46821 7.50774 6.93958 7.03638C7.41094 6.56501 7.99408 6.32349 8.66028 6.32349C9.32627 6.32356 9.90875 6.5652 10.38 7.03638C10.8514 7.50774 11.0929 8.09088 11.0929 8.75708C11.0928 9.42314 10.8513 10.0055 10.38 10.4768C9.90872 10.9481 9.32634 11.1896 8.66028 11.1897Z" fill="#1A1A1A"/>
<path d="M8.62708 19.5901C9.04434 19.59 9.40513 19.4718 9.72473 19.2297L9.85852 19.1184L14.4396 14.5364C15.1952 13.7366 15.7815 12.8449 16.2003 11.8606C16.6178 10.8794 16.8263 9.8463 16.8263 8.75708C16.8263 7.66754 16.6174 6.62121 16.1984 5.61548C15.7803 4.61216 15.1975 3.7372 14.4493 2.98657C13.647 2.22646 12.7521 1.63761 11.7638 1.21704C10.7826 0.799536 9.74959 0.590129 8.66028 0.590088C7.57074 0.590088 6.52441 0.798963 5.51868 1.21802C4.51102 1.63789 3.6328 2.22402 2.88 2.97681C2.12721 3.7296 1.54109 4.60783 1.12122 5.61548C0.702161 6.62121 0.493286 7.66754 0.493286 8.75708C0.493328 9.84639 0.702734 10.8794 1.12024 11.8606C1.48827 12.7255 1.98467 13.5192 2.61243 14.2415L2.88977 14.5461L7.48059 19.137C7.78062 19.4368 8.15098 19.5901 8.62708 19.5901ZM8.66028 19.3899C8.27219 19.3899 7.91885 19.2575 7.61438 19.0139L7.5929 18.9963L7.57336 18.9768L2.97278 14.3772C2.21421 13.6186 1.64227 12.7491 1.26086 11.7717C0.882268 10.8015 0.693536 9.78444 0.693481 8.72388C0.693481 7.66313 0.882199 6.6454 1.26086 5.67505C1.64283 4.69627 2.21669 3.83608 2.97864 3.0979C3.73477 2.3654 4.59901 1.79675 5.56848 1.39478C6.54114 0.991489 7.56231 0.790283 8.62708 0.790283C9.69165 0.790341 10.7122 0.991562 11.6847 1.39478C12.6507 1.79532 13.5131 2.35052 14.2687 3.05884L14.2745 3.06372L14.2804 3.06958C15.3187 4.10791 16.0205 5.31976 16.3771 6.69849C16.7316 8.06943 16.7316 9.44473 16.3771 10.8157C16.0209 12.1926 15.3191 13.3822 14.2794 14.3772H14.2804L9.67981 18.9768C9.40223 19.2543 9.05045 19.3898 8.66028 19.3899ZM8.66028 11.3235C9.37125 11.3234 9.96611 11.0762 10.4728 10.5696C10.9794 10.0629 11.2266 9.46805 11.2267 8.75708C11.2267 8.04546 10.9794 7.43505 10.4669 6.90356C9.95873 6.37657 9.36524 6.12337 8.66028 6.12329C7.95453 6.12329 7.34645 6.37755 6.8136 6.9104C6.28075 7.44325 6.02649 8.05134 6.02649 8.75708C6.02657 9.46204 6.27976 10.0555 6.80676 10.5637C7.33824 11.0762 7.94866 11.3235 8.66028 11.3235ZM8.66028 11.1897C7.99408 11.1897 7.41094 10.9482 6.93958 10.4768C6.4684 10.0055 6.22676 9.42307 6.22668 8.75708C6.22668 8.09088 6.46821 7.50774 6.93958 7.03638C7.41094 6.56501 7.99408 6.32349 8.66028 6.32349C9.32627 6.32356 9.90875 6.5652 10.38 7.03638C10.8514 7.50774 11.0929 8.09088 11.0929 8.75708C11.0928 9.42314 10.8513 10.0055 10.38 10.4768C9.90872 10.9481 9.32634 11.1896 8.66028 11.1897Z" stroke="black"/>
<path d="M8.62708 19.5901C9.04434 19.59 9.40513 19.4718 9.72473 19.2297L9.85852 19.1184L14.4396 14.5364C15.1952 13.7366 15.7815 12.8449 16.2003 11.8606C16.6178 10.8794 16.8263 9.8463 16.8263 8.75708C16.8263 7.66754 16.6174 6.62121 16.1984 5.61548C15.7803 4.61216 15.1975 3.7372 14.4493 2.98657C13.647 2.22646 12.7521 1.63761 11.7638 1.21704C10.7826 0.799536 9.74959 0.590129 8.66028 0.590088C7.57074 0.590088 6.52441 0.798963 5.51868 1.21802C4.51102 1.63789 3.6328 2.22402 2.88 2.97681C2.12721 3.7296 1.54109 4.60783 1.12122 5.61548C0.702161 6.62121 0.493286 7.66754 0.493286 8.75708C0.493328 9.84639 0.702734 10.8794 1.12024 11.8606C1.48827 12.7255 1.98467 13.5192 2.61243 14.2415L2.88977 14.5461L7.48059 19.137C7.78062 19.4368 8.15098 19.5901 8.62708 19.5901ZM8.66028 19.3899C8.27219 19.3899 7.91885 19.2575 7.61438 19.0139L7.5929 18.9963L7.57336 18.9768L2.97278 14.3772C2.21421 13.6186 1.64227 12.7491 1.26086 11.7717C0.882268 10.8015 0.693536 9.78444 0.693481 8.72388C0.693481 7.66313 0.882199 6.6454 1.26086 5.67505C1.64283 4.69627 2.21669 3.83608 2.97864 3.0979C3.73477 2.3654 4.59901 1.79675 5.56848 1.39478C6.54114 0.991489 7.56231 0.790283 8.62708 0.790283C9.69165 0.790341 10.7122 0.991562 11.6847 1.39478C12.6507 1.79532 13.5131 2.35052 14.2687 3.05884L14.2745 3.06372L14.2804 3.06958C15.3187 4.10791 16.0205 5.31976 16.3771 6.69849C16.7316 8.06943 16.7316 9.44473 16.3771 10.8157C16.0209 12.1926 15.3191 13.3822 14.2794 14.3772H14.2804L9.67981 18.9768C9.40223 19.2543 9.05045 19.3898 8.66028 19.3899ZM8.66028 11.3235C9.37125 11.3234 9.96611 11.0762 10.4728 10.5696C10.9794 10.0629 11.2266 9.46805 11.2267 8.75708C11.2267 8.04546 10.9794 7.43505 10.4669 6.90356C9.95873 6.37657 9.36524 6.12337 8.66028 6.12329C7.95453 6.12329 7.34645 6.37755 6.8136 6.9104C6.28075 7.44325 6.02649 8.05134 6.02649 8.75708C6.02657 9.46204 6.27976 10.0555 6.80676 10.5637C7.33824 11.0762 7.94866 11.3235 8.66028 11.3235ZM8.66028 11.1897C7.99408 11.1897 7.41094 10.9482 6.93958 10.4768C6.4684 10.0055 6.22676 9.42307 6.22668 8.75708C6.22668 8.09088 6.46821 7.50774 6.93958 7.03638C7.41094 6.56501 7.99408 6.32349 8.66028 6.32349C9.32627 6.32356 9.90875 6.5652 10.38 7.03638C10.8514 7.50774 11.0929 8.09088 11.0929 8.75708C11.0928 9.42314 10.8513 10.0055 10.38 10.4768C9.90872 10.9481 9.32634 11.1896 8.66028 11.1897Z" stroke="black" stroke-opacity="0.2"/>
</svg>
