<svg width="40" height="38" viewBox="0 0 40 38" fill="none" xmlns="http://www.w3.org/2000/svg">
<path d="M10.069 38C7.03248 38 4.66021 36.9524 2.95218 34.8571C1.24415 32.6667 0.390137 29.4286 0.390137 25.1429C0.390137 20.6667 1.38649 16.381 3.37919 12.2857C5.46678 8.19048 8.40839 4.14286 12.204 0.142864C12.2989 0.0476213 12.4412 0 12.631 0C12.9156 0 13.1054 0.142858 13.2003 0.428574C13.3901 0.619048 13.4375 0.857143 13.3427 1.14286C11.0653 4.19048 9.49963 7.14286 8.64562 10C7.88649 12.7619 7.50693 15.8571 7.50693 19.2857C7.50693 21.8571 7.83905 23.8571 8.50328 25.2857C9.16751 26.7143 10.069 28 11.2076 29.1429L5.7989 30.1429C5.70401 28.5238 6.13102 27.2857 7.07992 26.4286C8.12372 25.5714 9.45219 25.1429 11.0653 25.1429C13.058 25.1429 14.5762 25.7143 15.62 26.8571C16.7587 28 17.3281 29.5714 17.3281 31.5714C17.3281 33.6667 16.6638 35.2857 15.3354 36.4286C14.1018 37.4762 12.3463 38 10.069 38ZM31.9886 38C28.9521 38 26.5799 36.9524 24.8719 34.8571C23.2587 32.6667 22.4521 29.4286 22.4521 25.1429C22.4521 20.5714 23.4485 16.2381 25.4412 12.1429C27.4339 8.04762 30.3755 4.04762 34.266 0.142864C34.3609 0.0476213 34.5032 0 34.693 0C34.9777 0 35.1675 0.142858 35.2624 0.428574C35.4521 0.619048 35.4996 0.857143 35.4047 1.14286C33.1273 4.19048 31.5616 7.14286 30.7076 10C29.9485 12.7619 29.5689 15.8571 29.5689 19.2857C29.5689 21.8571 29.8536 23.9048 30.4229 25.4286C31.0872 26.8571 31.9886 28.0952 33.1273 29.1429L27.8609 30.1429C27.766 28.5238 28.193 27.2857 29.1419 26.4286C30.0908 25.5714 31.4193 25.1429 33.1273 25.1429C35.12 25.1429 36.6383 25.7143 37.6821 26.8571C38.8208 28 39.3901 29.5714 39.3901 31.5714C39.3901 33.6667 38.7259 35.2857 37.3974 36.4286C36.1638 37.4762 34.3609 38 31.9886 38Z" fill="#1A1A1A"/>
</svg>
