<svg width="21" height="21" viewBox="0 0 21 21" fill="none" xmlns="http://www.w3.org/2000/svg">
<g clip-path="url(#clip0_2_571)">
<path d="M18.0133 6.73667H9.21331C8.76887 6.73667 8.34665 6.87 7.94665 7.13667C7.85776 6.47 7.57998 5.92556 7.11331 5.50334C6.64665 5.08111 6.1022 4.87 5.47998 4.87C4.99109 4.87 4.54665 4.98111 4.14665 5.20334V4.20334C4.14665 4.02556 4.09109 3.88111 3.97998 3.77C3.86887 3.65889 3.72443 3.60334 3.54665 3.60334H1.07998C0.902203 3.60334 0.757758 3.65889 0.646647 3.77C0.535536 3.88111 0.47998 4.02556 0.47998 4.20334V16.7367C0.47998 16.9144 0.535536 17.0589 0.646647 17.17C0.757758 17.2811 0.902203 17.3367 1.07998 17.3367H3.54665C3.72443 17.3367 3.86887 17.2811 3.97998 17.17C4.09109 17.0589 4.14665 16.9144 4.14665 16.7367V14.8033H16.8133V16.7367C16.8133 16.9144 16.8689 17.0589 16.98 17.17C17.0911 17.2811 17.2355 17.3367 17.4133 17.3367H19.88C20.0578 17.3367 20.2022 17.2811 20.3133 17.17C20.4244 17.0589 20.48 16.9144 20.48 16.7367V9.20334C20.48 8.53667 20.2355 7.95889 19.7466 7.47C19.2578 6.98111 18.68 6.73667 18.0133 6.73667ZM5.47998 6.00334C5.83554 6.00334 6.13554 6.13667 6.37998 6.40334C6.62443 6.67 6.74665 6.98111 6.74665 7.33667C6.74665 7.69223 6.62443 7.99222 6.37998 8.23667C6.13554 8.48111 5.83554 8.60334 5.47998 8.60334C5.12442 8.60334 4.81331 8.48111 4.54665 8.23667C4.27998 7.99222 4.14665 7.69223 4.14665 7.33667C4.14665 6.98111 4.27998 6.67 4.54665 6.40334C4.81331 6.13667 5.12442 6.00334 5.47998 6.00334ZM4.14665 9.40334C4.54665 9.67 4.97998 9.80334 5.44665 9.80334C5.91331 9.80334 6.34665 9.67 6.74665 9.40334V11.1367H4.14665V9.40334ZM19.28 16.1367H17.9466V14.2033C17.9466 14.07 17.8911 13.9478 17.78 13.8367C17.6689 13.7256 17.5466 13.67 17.4133 13.67H3.54665C3.41331 13.67 3.29109 13.7256 3.17998 13.8367C3.06887 13.9478 3.01331 14.07 3.01331 14.2033V16.1367H1.67998V4.80334H3.01331V11.7367C3.01331 11.87 3.06887 12.0033 3.17998 12.1367C3.29109 12.27 3.41331 12.3367 3.54665 12.3367H19.28V16.1367ZM19.28 11.1367H7.94665V9.20334C7.94665 8.84778 8.06887 8.54778 8.31331 8.30334C8.55776 8.05889 8.85776 7.93667 9.21331 7.93667H18.0133C18.3689 7.93667 18.6689 8.05889 18.9133 8.30334C19.1578 8.54778 19.28 8.84778 19.28 9.20334V11.1367Z" fill="#1A1A1A"/>
</g>
<defs>
<clipPath id="clip0_2_571">
<rect width="20" height="20" fill="white" transform="matrix(1 0 0 -1 0.47998 20.47)"/>
</clipPath>
</defs>
</svg>
